# xmcd CD database file
#
# Track frame offsets:
#	150
#	12422
#	23327
#	32639
#	45246
#	56418
#	62341
#	74220
#	83967
#	94310
#	101937
#	112754
#
# Disc length: 1647 seconds
#
# Revision: 0
# Processed by: cddbd v1.5.2PL0 Copyright (c) Steve Scherf et al.
# Submitted via: CDex 1.51
#
DISCID=92066d0c
DTITLE=Johnny Cash - The Best Of Johnny Cash  -  CD 1
DYEAR=2008
DGENRE=Country
TTITLE0=I Walk The Line
TTITLE1=Cry, Cry, Cry
TTITLE2=Luther Played The Boogie
TTITLE3=Folsom Prison Blues
TTITLE4=Mean Eyed Cat
TTITLE5=You Tell Me
TTITLE6=Home Of The Blues
TTITLE7=Rock Island Line
TTITLE8=Train Of Love
TTITLE9=If THe Good Lord's Willing
TTITLE10=Belshazar
TTITLE11=Wide Open Road
EXTD=YEAR: 2008
EXTT0=
EXTT1=
EXTT2=
EXTT3=
EXTT4=
EXTT5=
EXTT6=
EXTT7=
EXTT8=
EXTT9=
EXTT10=
EXTT11=
PLAYORDER=
